Run_30001
nRows=4
nColumns=164

# SIMM Motion File Header:
name Run_30001
datacolumns 164
datarows 4
otherdata 1
range 2.68333300 2.70833300
endheader
time	pelvis_tilt	pelvis_list	pelvis_rotation	pelvis_tx	pelvis_ty	pelvis_tz	hip_flexion_r	hip_adduction_r	hip_rotation_r	knee_angle_r	ankle_angle_r	hip_flexion_l	hip_adduction_l	hip_rotation_l	knee_angle_l	ankle_angle_l	lumbar_extension	lumbar_bending	lumbar_rotation	arm_flex_r	arm_add_r	arm_rot_r	elbow_flex_r	pro_sup_r	arm_flex_l	arm_add_l	arm_rot_l	elbow_flex_l	pro_sup_l	subtalar_angle_r	mtp_angle_r	subtalar_angle_l	mtp_angle_l	wrist_flex_r	wrist_dev_r	wrist_flex_l	wrist_dev_l	LASI_tx	LASI_ty	LASI_tz	RASI_tx	RASI_ty	RASI_tz	LPSI_tx	LPSI_ty	LPSI_tz	RPSI_tx	RPSI_ty	RPSI_tz	RTH1_tx	RTH1_ty	RTH1_tz	RTH2_tx	RTH2_ty	RTH2_tz	RTH3_tx	RTH3_ty	RTH3_tz	LTH1_tx	LTH1_ty	LTH1_tz	LTH2_tx	LTH2_ty	LTH2_tz	LTH3_tx	LTH3_ty	LTH3_tz	RTB1_tx	RTB1_ty	RTB1_tz	RTB2_tx	RTB2_ty	RTB2_tz	RTB3_tx	RTB3_ty	RTB3_tz	LTB1_tx	LTB1_ty	LTB1_tz	LTB2_tx	LTB2_ty	LTB2_tz	LTB3_tx	LTB3_ty	LTB3_tz	RCAL_tx	RCAL_ty	RCAL_tz	RTOE_tx	RTOE_ty	RTOE_tz	RMT5_tx	RMT5_ty	RMT5_tz	LCAL_tx	LCAL_ty	LCAL_tz	LTOE_tx	LTOE_ty	LTOE_tz	LMT5_tx	LMT5_ty	LMT5_tz	LACR_tx	LACR_ty	LACR_tz	RACR_tx	RACR_ty	RACR_tz	CLAV_tx	CLAV_ty	CLAV_tz	C7_tx	C7_ty	C7_tz	RUA1_tx	RUA1_ty	RUA1_tz	RUA2_tx	RUA2_ty	RUA2_tz	RUA3_tx	RUA3_ty	RUA3_tz	RLEL_tx	RLEL_ty	RLEL_tz	RMEL_tx	RMEL_ty	RMEL_tz	LUA1_tx	LUA1_ty	LUA1_tz	LUA2_tx	LUA2_ty	LUA2_tz	LUA3_tx	LUA3_ty	LUA3_tz	LLEL_tx	LLEL_ty	LLEL_tz	LMEL_tx	LMEL_ty	LMEL_tz	RFAsuperior_tx	RFAsuperior_ty	RFAsuperior_tz	RFAradius_tx	RFAradius_ty	RFAradius_tz	RFAulna_tx	RFAulna_ty	RFAulna_tz	LFAsuperior_tx	LFAsuperior_ty	LFAsuperior_tz	LFAradius_tx	LFAradius_ty	LFAradius_tz	LFAulna_tx	LFAulna_ty	LFAulna_tz
      2.68333300	     -1.50582901	      4.98382196	      5.42349036	      0.76310767	      0.95353609	     -0.37385663	     30.40090201	     -6.71325767	      0.45190672	   -108.19903481	     -5.10631121	      6.01639819	      7.71820884	      0.34468806	    -33.41471462	     20.89359480	    -16.32875572	     -6.68391057	     -8.33798501	    -26.06456912	    -20.83775876	      7.69416256	    109.99353417	     75.82880191	      2.39843695	    -35.07165782	     -2.25565196	    122.08614176	    101.04634590	      0.00000000	      0.00000000	      0.00000000	      0.00000000	      0.00000000	      0.00000000	      0.00000000	      0.00000000	      0.77026261	      0.97883440	     -0.49522150	      0.77355537	      0.97302815	     -0.24845483	      0.60153704	      1.00668712	     -0.40161611	      0.60588139	      1.00274446	     -0.31631014	      0.77989144	      0.79703355	     -0.20651543	      0.88663837	      0.71129939	     -0.23308700	      0.86101421	      0.57901111	     -0.21896207	      0.71846901	      0.84038221	     -0.54340543	      0.77247557	      0.72530162	     -0.53376926	      0.70388011	      0.58646025	     -0.52420714	      0.79326239	      0.42692280	     -0.27541013	      0.72387274	      0.45314883	     -0.22029714	      0.61581213	      0.41175391	     -0.28082507	      0.70763079	      0.34442394	     -0.44631971	      0.62013915	      0.26430511	     -0.48717134	      0.60140645	      0.18824247	     -0.41197562	      0.46844971	      0.49694687	     -0.27680894	      0.48062525	      0.27763491	     -0.28685424	      0.45796168	      0.30577206	     -0.19674520	      0.43656105	      0.11300516	     -0.40411102	      0.65077418	      0.06980169	     -0.41009842	      0.61621663	      0.05890083	     -0.49521261	      0.78767717	      1.40146441	     -0.57437176	      0.77405338	      1.42934401	     -0.19263697	      0.87849174	      1.38066628	     -0.34990666	      0.74891381	      1.47665662	     -0.39215444	      0.71945948	      1.33406833	     -0.12970175	      0.71582716	      1.26270773	     -0.12844588	      0.61552122	      1.27983851	     -0.10026866	      0.61891002	      1.18984501	     -0.05940356	      0.56631935	      1.18343517	     -0.13026701	      0.76036310	      1.32801239	     -0.62964512	      0.70197352	      1.25651918	     -0.61760648	      0.74929780	      1.24419805	     -0.67622606	      0.74130356	      1.14584305	     -0.72956113	      0.70952167	      1.08733814	     -0.66986287	      0.68835321	      1.14506143	     -0.08477060	      0.81014046	      1.08057506	     -0.18241725	      0.76479506	      1.03034210	     -0.16727296	      0.81100777	      1.15954167	     -0.70811462	      0.93793433	      1.16970096	     -0.58632778	      0.95844291	      1.11953351	     -0.62729563
      2.69166700	     -1.71509747	      4.08118639	      5.66142287	      0.76402726	      0.95809204	     -0.37487438	     32.49057826	     -5.89351222	      0.04664708	   -105.91404375	     -4.58963413	      3.26723796	      6.71111064	      1.33349606	    -30.79436101	     19.67560962	    -15.93187538	     -5.37639366	     -9.48288007	    -27.37375122	    -21.23634311	      6.60001905	    111.18916403	     74.87344759	      1.93923233	    -33.96586539	     -2.53322481	    122.68699989	    100.46816991	      0.00000000	      0.00000000	      0.00000000	      0.00000000	      0.00000000	      0.00000000	      0.00000000	      0.00000000	      0.77127177	      0.98082645	     -0.49852548	      0.77349947	      0.97885003	     -0.24933366	      0.60273504	      1.01115896	     -0.40272805	      0.60674010	      1.00836543	     -0.31732961	      0.78461355	      0.80535786	     -0.20647981	      0.89355637	      0.72282019	     -0.23383042	      0.87303273	      0.59033752	     -0.21987523	      0.71512258	      0.84249075	     -0.54313672	      0.76494001	      0.72583498	     -0.53214260	      0.68917448	      0.58954397	     -0.52203742	      0.81245534	      0.43204054	     -0.27727670	      0.74143899	      0.45365099	     -0.22151086	      0.63688323	      0.40487264	     -0.28140461	      0.68606119	      0.34658063	     -0.44500541	      0.59755082	      0.26809790	     -0.48662044	      0.57842826	      0.19136868	     -0.41243300	      0.48235474	      0.47904449	     -0.27644049	      0.51319692	      0.26140276	     -0.28902356	      0.48774841	      0.28700799	     -0.19818551	      0.41286737	      0.11779825	     -0.40529649	      0.62632914	      0.06996882	     -0.41050064	      0.59092609	      0.05900348	     -0.49504610	      0.79270628	      1.40651285	     -0.57282537	      0.77056438	      1.43529623	     -0.19229000	      0.87870212	      1.38620201	     -0.34664688	      0.74988251	      1.48150224	     -0.39147594	      0.71345994	      1.34215194	     -0.12945288	      0.70917349	      1.27091540	     -0.12698153	      0.60777231	      1.28884533	     -0.10244341	      0.60936887	      1.19937876	     -0.06083232	      0.55913707	      1.19242575	     -0.13337412	      0.76645990	      1.33231488	     -0.62798443	      0.70682304	      1.26156597	     -0.61638756	      0.75572480	      1.24793088	     -0.67331482	      0.74760538	      1.14896800	     -0.72541304	      0.71439330	      1.09177840	     -0.66496479	      0.67964194	      1.15533933	     -0.08394087	      0.80425367	      1.09018115	     -0.17635434	      0.75848299	      1.03985619	     -0.16343547	      0.81692660	      1.16343298	     -0.70317486	      0.94188607	      1.17654535	     -0.57973045	      0.96298623	      1.12539858	     -0.61883764
      2.70000000	     -1.88343930	      3.11678628	      5.86975371	      0.76545273	      0.96307994	     -0.37586604	     34.24284997	     -5.00978396	     -0.40886819	   -103.12015579	     -3.99052120	      0.45000008	      5.58939486	      2.36950329	    -28.02591840	     17.88243527	    -15.52364478	     -3.99774625	    -10.57212355	    -28.63990770	    -21.77288369	      5.52861166	    112.42425265	     74.30907157	      1.22463643	    -32.99144160	     -2.62243439	    123.41257182	     99.56170024	      0.00000000	      0.00000000	      0.00000000	      0.00000000	      0.00000000	      0.00000000	      0.00000000	      0.00000000	      0.77273840	      0.98313925	     -0.50220944	      0.77387704	      0.98523030	     -0.24991405	      0.60441189	      1.01575559	     -0.40384046	      0.60797893	      1.01441269	     -0.31824008	      0.78942775	      0.81406695	     -0.20678446	      0.89990060	      0.73425686	     -0.23470003	      0.88391430	      0.60141788	     -0.22085571	      0.71302175	      0.84481908	     -0.54258142	      0.75795009	      0.72670695	     -0.53020919	      0.67474465	      0.59373350	     -0.51947208	      0.83104272	      0.43739209	     -0.27927767	      0.75858715	      0.45358691	     -0.22279522	      0.65777027	      0.39724636	     -0.28208222	      0.66483235	      0.34996914	     -0.44347424	      0.57563558	      0.27320815	     -0.48645126	      0.55619523	      0.19558756	     -0.41315517	      0.49713916	      0.45928085	     -0.27697410	      0.54696395	      0.24502981	     -0.29091519	      0.51958529	      0.26834908	     -0.19928381	      0.39038670	      0.12417336	     -0.40725235	      0.60233571	      0.07031826	     -0.41073472	      0.56572841	      0.05914621	     -0.49476797	      0.79780837	      1.41238839	     -0.57095956	      0.76719685	      1.44163108	     -0.19199957	      0.87883128	      1.39232542	     -0.34319513	      0.75072722	      1.48673874	     -0.39054154	      0.70793272	      1.35078961	     -0.12921387	      0.70324821	      1.27961535	     -0.12553489	      0.60083306	      1.29833653	     -0.10454280	      0.60096794	      1.20958841	     -0.06221117	      0.55263399	      1.20175778	     -0.13613443	      0.77237432	      1.33768880	     -0.62619569	      0.71156862	      1.26776478	     -0.61548855	      0.76222177	      1.25281145	     -0.67068569	      0.75333536	      1.15336662	     -0.72173188	      0.71786628	      1.09760775	     -0.66067847	      0.67211688	      1.16665417	     -0.08315903	      0.79878796	      1.10027817	     -0.17080467	      0.75290586	      1.04989802	     -0.15945180	      0.82223026	      1.16817173	     -0.69842657	      0.94478398	      1.18370061	     -0.57320406	      0.96619083	      1.13148052	     -0.61010580
      2.70833300	     -2.01687899	      2.15746980	      6.00590763	      0.76726337	      0.96833146	     -0.37669762	     35.68560153	     -4.10700014	     -0.84070778	    -99.87405653	     -3.34505171	     -2.33762865	      4.40976932	      3.30388937	    -25.27079877	     15.48611144	    -15.11665251	     -2.63309858	    -11.53233693	    -29.88526424	    -22.37177566	      4.43603295	    113.61604850	     74.15005548	      0.36942320	    -32.18146715	     -2.45450473	    124.19318850	     98.38262601	      0.00000000	      0.00000000	      0.00000000	      0.00000000	      0.00000000	      0.00000000	      0.00000000	      0.00000000	      0.77449036	      0.98581981	     -0.50528570	      0.77459994	      0.99183252	     -0.25046110	      0.60651496	      1.02048060	     -0.40509956	      0.60955527	      1.02066007	     -0.31913677	      0.79422338	      0.82303537	     -0.20728710	      0.90572941	      0.74550436	     -0.23568161	      0.89354386	      0.61203294	     -0.22183858	      0.71185256	      0.84734066	     -0.54172087	      0.75157625	      0.72810184	     -0.52811074	      0.66125009	      0.59894066	     -0.51689213	      0.84886524	      0.44268313	     -0.28114087	      0.77538388	      0.45281551	     -0.22413410	      0.67855163	      0.38886729	     -0.28295729	      0.64429362	      0.35476563	     -0.44197298	      0.55471586	      0.27975762	     -0.48677774	      0.53494423	      0.20096926	     -0.41404979	      0.51316471	      0.43780545	     -0.27834994	      0.58195593	      0.22885996	     -0.29239207	      0.55316492	      0.25001255	     -0.20016745	      0.36930703	      0.13213756	     -0.40976607	      0.57879786	      0.07067967	     -0.41088878	      0.54074469	      0.05938215	     -0.49447468	      0.80279984	      1.41884904	     -0.56887947	      0.76410655	      1.44809170	     -0.19165833	      0.87886232	      1.39889554	     -0.33965624	      0.75148501	      1.49223576	     -0.38944998	      0.70299049	      1.35962493	     -0.12896735	      0.69803253	      1.28848588	     -0.12412636	      0.59479343	      1.30797628	     -0.10654081	      0.59346632	      1.22003338	     -0.06339593	      0.54673251	      1.21134759	     -0.13862059	      0.77798647	      1.34393213	     -0.62434541	      0.71615523	      1.27485225	     -0.61493811	      0.76852961	      1.25861871	     -0.66837341	      0.75850028	      1.15885034	     -0.71863952	      0.72031003	      1.10445898	     -0.65717859	      0.66541094	      1.17807226	     -0.08212343	      0.79373604	      1.11043346	     -0.16571250	      0.74802182	      1.05997778	     -0.15534133	      0.82693567	      1.17357200	     -0.69399103	      0.94671367	      1.19095513	     -0.56678916	      0.96819776	      1.13756403	     -0.60125657
